<svg aria-hidden="true" style="position: absolute; width: 0; height: 0; overflow: hidden;" version="1.1" xmlns="http://www.w3.org/2000/svg" xmlns:xlink="http://www.w3.org/1999/xlink">
<defs>
<symbol id="icon-plus" viewBox="0 0 32 32">
<path d="M32 13.714h-13.714v-13.714h-4.571v13.714h-13.714v4.571h13.714v13.714h4.571v-13.714h13.714v-4.571z"></path>
</symbol>
<symbol id="icon-star" viewBox="0 0 32 32">
<path d="M7.226 19.719l-2.384 10.323c-0.074 0.312-0.052 0.64 0.064 0.94s0.318 0.558 0.582 0.74c0.264 0.183 0.577 0.281 0.899 0.283s0.635-0.093 0.902-0.272l8.712-5.808 8.712 5.808c0.273 0.181 0.594 0.274 0.921 0.267s0.644-0.114 0.908-0.307c0.264-0.193 0.463-0.462 0.57-0.771s0.116-0.644 0.028-0.958l-2.926-10.24 7.258-6.531c0.232-0.209 0.399-0.482 0.477-0.785s0.068-0.622-0.033-0.918-0.285-0.556-0.532-0.749c-0.247-0.192-0.544-0.308-0.856-0.332l-9.122-0.726-3.947-8.738c-0.126-0.281-0.33-0.52-0.589-0.688s-0.56-0.257-0.868-0.257c-0.308 0-0.61 0.089-0.868 0.257s-0.463 0.407-0.589 0.688l-3.947 8.738-9.122 0.725c-0.306 0.024-0.599 0.136-0.844 0.323s-0.43 0.439-0.534 0.728c-0.104 0.289-0.123 0.602-0.055 0.902s0.223 0.573 0.443 0.788l6.742 6.571zM11.79 12.798c0.286-0.023 0.56-0.121 0.794-0.286s0.42-0.39 0.537-0.651l2.878-6.37 2.878 6.37c0.117 0.261 0.303 0.486 0.537 0.651s0.508 0.264 0.794 0.286l6.355 0.504-5.234 4.71c-0.454 0.41-0.635 1.040-0.469 1.629l2.005 7.016-5.978-3.986c-0.262-0.176-0.571-0.27-0.887-0.27s-0.625 0.094-0.887 0.27l-6.246 4.165 1.68-7.274c0.062-0.268 0.053-0.546-0.024-0.81s-0.221-0.503-0.418-0.694l-4.861-4.739 6.544-0.522z" fill="currentColor"></path>
</symbol>
<symbol id="icon-instagram" viewBox="0 0 32 32">
<path d="M15.998 6.161c3.206 0 3.585 0.014 4.846 0.071 1.172 0.052 1.804 0.248 2.226 0.412 0.558 0.216 0.961 0.478 1.378 0.895 0.422 0.422 0.679 0.82 0.9 1.378 0.164 0.422 0.361 1.059 0.412 2.226 0.056 1.266 0.071 1.645 0.071 4.847s-0.014 3.585-0.071 4.847c-0.052 1.172-0.248 1.804-0.412 2.227-0.216 0.558-0.478 0.961-0.895 1.377-0.422 0.422-0.82 0.679-1.378 0.9-0.422 0.164-1.060 0.361-2.226 0.412-1.266 0.056-1.645 0.071-4.847 0.071s-3.585-0.014-4.847-0.071c-1.172-0.052-1.804-0.248-2.226-0.412-0.558-0.216-0.961-0.478-1.378-0.895-0.422-0.422-0.679-0.82-0.9-1.378-0.164-0.422-0.361-1.060-0.412-2.226-0.056-1.266-0.071-1.645-0.071-4.847s0.014-3.585 0.071-4.847c0.052-1.172 0.248-1.804 0.412-2.226 0.216-0.558 0.478-0.961 0.895-1.378 0.422-0.422 0.82-0.679 1.378-0.9 0.422-0.164 1.059-0.361 2.226-0.412 1.261-0.056 1.641-0.071 4.847-0.071h0.001zM15.998 4.001c-3.258 0-3.665 0.014-4.945 0.071-1.275 0.056-2.151 0.262-2.91 0.558-0.792 0.309-1.462 0.717-2.127 1.387-0.67 0.666-1.078 1.336-1.387 2.123-0.295 0.764-0.502 1.636-0.558 2.91-0.056 1.285-0.071 1.692-0.071 4.949s0.014 3.665 0.071 4.945c0.056 1.275 0.262 2.151 0.558 2.91 0.31 0.792 0.717 1.462 1.387 2.127 0.665 0.665 1.336 1.078 2.123 1.383 0.764 0.295 1.636 0.502 2.91 0.558 1.279 0.056 1.687 0.071 4.945 0.071s3.666-0.014 4.945-0.071c1.275-0.056 2.151-0.262 2.91-0.558 0.787-0.305 1.458-0.717 2.123-1.383s1.078-1.336 1.383-2.123c0.295-0.764 0.502-1.635 0.558-2.91 0.056-1.279 0.071-1.687 0.071-4.945s-0.014-3.665-0.071-4.945c-0.056-1.275-0.262-2.151-0.558-2.91-0.295-0.797-0.703-1.467-1.373-2.133-0.665-0.665-1.336-1.078-2.123-1.383-0.764-0.295-1.635-0.502-2.91-0.558-1.284-0.061-1.692-0.075-4.949-0.075l-0.001 0.001z"></path>
<path d="M15.998 9.836c-3.402 0-6.163 2.76-6.163 6.163s2.76 6.163 6.163 6.163c3.403 0 6.163-2.76 6.163-6.163s-2.76-6.163-6.163-6.163zM15.998 19.997c-2.208 0-3.998-1.79-3.998-3.998s1.79-3.998 3.998-3.998c2.208 0 3.998 1.79 3.998 3.998s-1.79 3.998-3.998 3.998z"></path>
<path d="M23.843 9.592c0 0.795-0.644 1.439-1.439 1.439s-1.439-0.644-1.439-1.439 0.644-1.439 1.439-1.439c0.795 0 1.439 0.644 1.439 1.439z"></path>
</symbol>
<symbol id="icon-x" viewBox="0 0 32 32">
<path d="M26.401 0l-11.316 11.313-11.313-11.313-3.771 3.771 11.313 11.313-11.313 11.313 3.771 3.771 11.313-11.313 11.316 11.313 3.771-3.771-11.313-11.313 11.313-11.313z"></path>
</symbol>
<symbol id="icon-minus" viewBox="0 0 32 32">
<path d="M6.668 14.669h18.669v2.667h-18.669z"></path>
</symbol>
<symbol id="icon-chevron-up" viewBox="0 0 32 32">
<path d="M0 20.552l3.771 3.771 11.448-11.448 11.448 11.448 3.771-3.771-15.219-15.219-15.219 15.219z"></path>
</symbol>
<symbol id="icon-chevron-right" viewBox="0 0 32 32">
<path d="M9.104 30.437l15.219-15.219-15.219-15.219-3.771 3.771 11.448 11.448-11.448 11.448 3.771 3.771z"></path>
</symbol>
<symbol id="icon-chevron-left" viewBox="0 0 32 32">
<path d="M20.552 0l-15.219 15.219 15.219 15.219 3.771-3.771-11.448-11.448 11.448-11.448-3.771-3.771z"></path>
</symbol>
<symbol id="icon-chevron-down" viewBox="0 0 32 32">
<path d="M26.667 5.333l-11.448 11.448-11.448-11.448-3.771 3.771 15.219 15.219 15.219-15.219-3.771-3.771z"></path>
</symbol>
<symbol id="icon-burger" viewBox="0 0 32 32">
<path d="M0 4h32v4h-32v-4zM0 14h32v4h-32v-4zM0 24h32v4h-32v-4z"></path>
</symbol>
<symbol id="icon-arrow-up" viewBox="0 0 32 32">
<path d="M13.045 8.75v21.911h4.571v-21.911l9.813 9.813 3.232-3.232-15.33-15.33-15.33 15.33 3.232 3.232 9.813-9.813z"></path>
</symbol>
<symbol id="icon-arrow-right" viewBox="0 0 32 32">
<path d="M12.098 27.429l3.232 3.232 15.33-15.33-15.33-15.33-3.232 3.232 9.813 9.813h-21.911v4.571h21.911l-9.813 9.813z"></path>
</symbol>
<symbol id="icon-arrow-left" viewBox="0 0 32 32">
<path d="M18.562 27.429l-9.813-9.813h21.911v-4.571h-21.911l9.813-9.813-3.232-3.232-15.33 15.33 15.33 15.33 3.232-3.232z"></path>
</symbol>
<symbol id="icon-arrow-down" viewBox="0 0 32 32">
<path d="M30.661 15.33l-3.232-3.232-9.813 9.813v-21.911h-4.571v21.911l-9.813-9.813-3.232 3.232 15.33 15.33 15.33-15.33z"></path>
</symbol>
<symbol id="icon-arrow-back" viewBox="0 0 32 32">
<path d="M31.013 13.822h-24.566l8.915-8.915-2.381-2.381-12.98 12.98 12.98 12.98 2.381-2.381-8.915-8.915h24.566v-3.368z"></path>
</symbol>
<symbol id="icon-relume" viewBox="0 0 32 32">
<path d="M29.968 8.192c0.282 0.486 0.431 1.038 0.432 1.6v12.4c-0.005 0.562-0.153 1.112-0.432 1.6l-0.24 0.4c-0.274 0.49-0.678 0.894-1.168 1.168l-10.736 6.208c-0.486 0.282-1.038 0.431-1.6 0.432h-0.448c-0.563 0.005-1.116-0.144-1.6-0.432l-10.752-6.192c-0.479-0.288-0.88-0.689-1.168-1.168l-0.224-0.4c-0.282-0.486-0.431-1.038-0.432-1.6v-12.4c0.001-0.562 0.15-1.114 0.432-1.6l0.224-0.4c0.28-0.485 0.683-0.888 1.168-1.168l10.736-6.208c0.486-0.282 1.038-0.431 1.6-0.432h0.464c0.562 0.001 1.114 0.15 1.6 0.432l10.736 6.192c0.488 0.282 0.895 0.684 1.184 1.168l0.224 0.4zM15.76 3.2l-9.36 5.408 9.6 5.536 9.6-5.536-9.376-5.408h-0.464zM17.6 28l9.36-5.408 0.24-0.4v-10.816l-9.6 5.552v11.072z"></path>
</symbol>
<symbol id="icon-selected-false" viewBox="0 0 32 32">
<path d="M16 0.5c8.56 0 15.5 6.94 15.5 15.5s-6.94 15.5-15.5 15.5c-8.56 0-15.5-6.94-15.5-15.5s6.94-15.5 15.5-15.5z"></path>
<path stroke-linejoin="miter" stroke-linecap="butt" stroke-miterlimit="4" stroke-width="1" d="M16 0.5c8.56 0 15.5 6.94 15.5 15.5s-6.94 15.5-15.5 15.5c-8.56 0-15.5-6.94-15.5-15.5s6.94-15.5 15.5-15.5z"></path>
</symbol>
<symbol id="icon-selected-true" viewBox="0 0 32 32">
<path d="M16 2c7.732 0 14 6.268 14 14s-6.268 14-14 14c-7.732 0-14-6.268-14-14s6.268-14 14-14z"></path>
<path stroke-linejoin="miter" stroke-linecap="butt" stroke-miterlimit="4" stroke-width="4" d="M16 2c7.732 0 14 6.268 14 14s-6.268 14-14 14c-7.732 0-14-6.268-14-14s6.268-14 14-14z"></path>
</symbol>
<symbol id="icon-youtube" viewBox="0 0 32 32">
<path d="M28.791 9.604c-0.152-0.563-0.449-1.077-0.861-1.49s-0.925-0.711-1.489-0.864c-2.088-0.573-10.441-0.583-10.441-0.583s-8.352-0.009-10.441 0.539c-0.563 0.16-1.075 0.462-1.487 0.878s-0.711 0.929-0.867 1.493c-0.551 2.088-0.556 6.419-0.556 6.419s-0.005 4.352 0.541 6.419c0.307 1.143 1.207 2.045 2.351 2.353 2.109 0.573 10.44 0.583 10.44 0.583s8.353 0.009 10.441-0.537c0.563-0.153 1.077-0.45 1.49-0.862s0.712-0.925 0.866-1.488c0.552-2.087 0.556-6.416 0.556-6.416s0.027-4.353-0.543-6.441zM13.328 20.007l0.007-8 6.943 4.007-6.949 3.993z"></path>
</symbol>
<symbol id="icon-facebook" viewBox="0 0 32 32">
<path d="M29.333 16.405c0-7.409-5.969-13.415-13.333-13.415s-13.333 6.006-13.333 13.415c0 6.696 4.876 12.245 11.25 13.252v-9.374h-3.385v-3.878h3.385v-2.955c0-3.362 1.991-5.219 5.036-5.219 1.459 0 2.985 0.262 2.985 0.262v3.301h-1.681c-1.656 0-2.173 1.034-2.173 2.095v2.516h3.698l-0.591 3.878h-3.107v9.374c6.374-1.006 11.25-6.556 11.25-13.252z"></path>
</symbol>
<symbol id="icon-burger1" viewBox="0 0 32 32">
<path d="M5.333 8h21.333v2.667h-21.333v-2.667zM5.333 14.667h21.333v2.667h-21.333v-2.667zM5.333 21.333h21.333v2.667h-21.333v-2.667z"></path>
</symbol>
<symbol id="icon-close" viewBox="0 0 32 32">
<path d="M21.589 8.459l-5.657 5.656-5.656-5.656-1.885 1.885 5.656 5.656-5.656 5.656 1.885 1.885 5.656-5.656 5.657 5.656 1.885-1.885-5.656-5.656 5.656-5.656-1.885-1.885z"></path>
</symbol>
</defs>
</svg>
